<svg id="Production – discord-js-guide-successful" aria-hidden="true" height="16" viewBox="0 0 16 16" version="1.1" width="16" data-view-component="true" class="octicon octicon-check-circle-fill color-fg-success" aria-describedby="tooltip-1c4df0e2-e515-42b1-8a34-fdf9a4e01c29">
    <path d="M8 16A8 8 0 1 1 8 0a8 8 0 0 1 0 16Zm3.78-9.72a.751.751 0 0 0-.018-1.042.751.751 0 0 0-1.042-.018L6.75 9.19 5.28 7.72a.751.751 0 0 0-1.042.018.751.751 0 0 0-.018 1.042l2 2a.75.75 0 0 0 1.06 0Z" fill="#3FB950"></path>
</svg>