<svg aria-hidden="true" focusable="false" role="img" class="octicon octicon-grabber __web-inspector-hide-shortcut__" viewBox="0 0 16 16" width="16" height="16" fill="currentColor" style="display: inline-block; user-select: none; vertical-align: text-bottom; overflow: visible;" fill="#7D8590"><path d="M10 13a1 1 0 1 1 0-2 1 1 0 0 1 0 2Zm0-4a1 1 0 1 1 0-2 1 1 0 0 1 0 2Zm-4 4a1 1 0 1 1 0-2 1 1 0 0 1 0 2Zm5-9a1 1 0 1 1-2 0 1 1 0 0 1 2 0ZM7 8a1 1 0 1 1-2 0 1 1 0 0 1 2 0ZM6 5a1 1 0 1 1 0-2 1 1 0 0 1 0 2Z" fill="#7D8590"></path></svg>